/* XPM */
static char *sithchain64[] = {
/* columns rows colors chars-per-pixel */
"64 64 131 2 ",
"   c #5F556D83B4C0",
".  c #5F446E1CB50E",
"X  c #5ECF6EC1B565",
"o  c #5F036EA4B556",
"O  c #5EC86F8BB5D0",
"+  c #5F376F94B5CA",
"@  c #5EEA7020B61E",
"#  c #5EA970C8B665",
"$  c #5E547184B6CB",
"%  c #5DCC7280B762",
"&  c #5DC47363B825",
"*  c #5DFA7214B719",
"=  c #5E417278B7AC",
"-  c #5DEA730BB804",
";  c #5DA173ADB856",
":  c #5BBC775BBA94",
">  c #5D2A7458B887",
",  c #5C6D755FB8C8",
"<  c #5C5A75E1B9B6",
"1  c #5C4E7611B9D3",
"2  c #5C447684BA9F",
"3  c #5C057705BAA4",
"4  c #5B5D7899BB0D",
"5  c #5B5F78F2BB49",
"6  c #5B5D7920BB7B",
"7  c #5B4C79E7BC52",
"8  c #59C17BBABE0C",
"9  c #5ABA7ACABD32",
"0  c #5B457A54BCAB",
"q  c #5A9A7A9EBD9B",
"w  c #5B087ABBBD50",
"e  c #5A2C7B40BDF8",
"r  c #5A5E7B6ABE9E",
"t  c #59A37C2ABE3C",
"y  c #59A37C30BEA7",
"u  c #59887D7DBF21",
"i  c #595C7DE3BF6C",
"p  c #58C87E8FC002",
"a  c #59567E7DBFBF",
"s  c #58B37EFCC048",
"d  c #589C7F31C073",
"f  c #59047FB0C107",
"g  c #58DA7FFFC142",
"h  c #57C98288C37F",
"j  c #56D683FBC40D",
"k  c #57498398C3E7",
"l  c #56FE83F5C44E",
"z  c #56B38475C4AA",
"x  c #5713844AC525",
"c  c #56D684EFC5B1",
"v  c #574A8468C585",
"b  c #564B85A4C5E3",
"n  c #56198614C63E",
"m  c #554986F3C689",
"M  c #554D877CC6C2",
"N  c #555A87EBC784",
"B  c #58CD8000C140",
"V  c #58D1801FC161",
"C  c #58E58067C1A8",
"Z  c #58AD8124C240",
"A  c #58D680F8C248",
"S  c #58E080FDC24A",
"D  c #58AC813BC268",
"F  c #58DB8108C24D",
"G  c #54C68879C7D8",
"H  c #55488847C79A",
"J  c #536C8AABCB2F",
"K  c #538D8BA4CAE2",
"L  c #535B8A9BCBBA",
"P  c #53478BA4CB95",
"I  c #54C488ECC8A2",
"U  c #554C8899C858",
"Y  c #54A489D4C8E1",
"T  c #54938A15C90F",
"R  c #541B8AC2C9DF",
"E  c #53F48B67CA35",
"W  c #53D989E6CA75",
"Q  c #54078B6ECA7C",
"!  c #53428C26CBD8",
"~  c #52BE8DC6CC30",
"^  c #52E88D91CC31",
"/  c #52AC8DFBCC75",
"(  c #52E08DE2CC87",
")  c #527E8E77CCD3",
"_  c #52518F81CD28",
"`  c #52528FF1CD8A",
"'  c #523F907CCDDA",
"]  c #518391A6CEE6",
"[  c #51539292CFCA",
"{  c #511C931FD039",
"}  c #4F97950ED14C",
"|  c #4F5B9593D1C8",
" . c #4F7196CCD244",
".. c #4FB09690D287",
"X. c #4F2797A9D2D0",
"o. c #4EB19886D333",
"O. c #4F069826D31B",
"+. c #4E6198F3D36B",
"@. c #4E4A99AAD3E9",
"#. c #4D3C9AE1D51A",
"$. c #4C8A9BAED5BD",
"%. c #4CE09B3FD57D",
"&. c #4E369A80D4BB",
"*. c #4C5D9C3AD61C",
"=. c #4C799CF9D664",
"-. c #4C689D94D6E5",
";. c #4C659E0FD75D",
":. c #4CD99DF5D7B1",
">. c #4C569E86D7C3",
",. c #4D109E56D82C",
"<. c #4BB9A00BD95D",
"1. c #4CC09EEAD890",
"2. c #4CED9EE8D8B9",
"3. c #4CD49F31D906",
"4. c #4CAB9FB1D98B",
"5. c #4CDD9F82D96F",
"6. c #50C193B1D0B1",
"7. c #51449320D055",
"8. c #502494A2D141",
"9. c #504E9494D155",
"0. c #501195C4D1FA",
"q. c #4FF19663D251",
"w. c #50239612D252",
"e. c #4FF796A8D2B3",
"r. c #4BA2A089D9D7",
"t. c #4B6EA12ADA59",
"y. c #4B85A11ADA5D",
"u. c #4B5CA173DAAE",
"i. c #4C58A060DA16",
"p. c #4C4BA0A8DA61",
"a. c None",
/* pixels */
"a.a.a.a.a.a.a.a.a.a.a.a.a.a.a.a.a.a.a.a.a.a.a.a.a.a.a.a.a.a.a.a.a.a.a.a.a.a.a.a.a.a.a.a.a.a.a.a.a.a.a.a.a.a.a.a.a.a.a.a.a.a.a.a.",
"a.a.a.a.a.a.a.a.a.a.a.a.a.a.a.a.a.a.a.a.a.a.a.a.a.a.a.a.a.a.a.a.a.a.a.a.a.a.a.a.a.a.a.a.a.a.a.a.a.a.a.a.a.a.a.a.a.a.a.a.a.a.a.a.",
"a.a.a.a.a.a.a.a.a.a.a.a.a.a.a.a.a.a.a.a.a.a.a.a.a.a.a.a.a.a.a.a.a.a.a.a.a.a.a.a.a.a.a.a.a.a.a.a.a.a.a.a.a.a.a.a.a.a.a.a.a.a.a.a.",
"a.a.a.a.a.a.a.a.a.a.a.a.a.a.a.a.a.a.a.a.a.a.a.a.a.a.a.a.a.a.a.a.a.a.a.a.a.a.a.a.a.a.a.a.a.a.a.a.a.a.a.a.a.a.a.a.a.a.a.a.a.a.a.a.",
"a.a.a.a.a.a.a.a.a.a.a.a.a.a.a.a.a.a.a.a.a.a.a.a.a.a.a.a.a.a.a.a.a.a.a.a.a.a.a.a.a.a.a.a.a.a.a.a.a.a.a.a.a.a.a.a.a.a.a.a.a.a.a.a.",
"a.a.a.a.a.a.a.a.a.a.a.a.a.a.a.a.a.a.a.a.a.a.a.a.a.a.a.a.a.a.a.a.a.a.a.a.a.a.a.a.a.a.a.a.a.a.a.a.a.a.a.a.a.a.a.a.a.a.a.a.a.a.a.a.",
"a.a.a.a.a.a.a.a.a.a.a.a.a.a.a.a.a.a.a.a.a.a.a.a.a.a.a.a.a.a.a.a.a.a.a.a.a.a.a.a.a.a.a.a.a.a.a.a.a.a.a.a.a.a.a.a.a.a.a.a.a.a.a.a.",
"a.a.a.a.a.a.a.a.a.a.a.&.@.@.X...a.a.a.a.a.a.a.a.a.a.a.a.a.a.a.a.a.a.a.a.a.a.a.a.a.a.a.a.a.a.a.a.4 3 2 < , a.a.a.a.a.a.a.a.a.a.a.",
"a.a.a.a.a.a.a.a.a.a.a.&.@.@.O.e.e.a.a.a.a.a.a.a.a.a.a.a.a.a.a.a.a.a.a.a.a.a.a.a.a.a.a.a.a.a.a.6 5 3 2 < , a.a.a.a.a.a.a.a.a.a.a.",
"a.a.a.a.a.a.a.a.a.a.#.&.@.+.X.e.e.a.a.a.a.a.a.a.a.a.a.a.a.a.a.a.a.a.a.a.a.a.a.a.a.a.a.a.a.a.a.0 5 3 2 < , > a.a.a.a.a.a.a.a.a.a.",
"a.a.a.a.a.a.a.a.a.a.#.&.@.a.a.e...a.a.a.a.a.a.a.a.a.a.a.a.a.a.a.a.a.a.a.a.a.a.a.a.a.a.a.a.a.a.0 5 a.a., , > a.a.a.a.a.a.a.a.a.a.",
"a.a.a.a.a.a.a.a.a.a.#.&.@.a. .e.w.a.a.a.a.a.a.a.a.a.a.a.a.a.G H M M a.a.a.a.a.a.a.a.a.a.a.a.a.0 5 3 a., , > a.a.a.a.a.a.a.a.a.a.",
"a.a.a.a.a.a.a.a.a.a.&.&.@.@.X.e.0.a.a.a.a.a.a.a.a.a.! J Q T U H M M b v k k a.a.a.a.a.a.a.a.a.7 5 3 2 < , > a.a.a.a.a.a.a.a.a.a.",
"a.a.a.a.a.a.a.a.a.a.a.&.@.@.O...a.a.a.a.a.a.a.a.) ) ! L Q T U H M M b v k k h A a.a.a.a.a.a.a.a.5 3 2 < , a.a.a.a.a.a.a.a.a.a.a.",
"a.a.a.a.a.a.:.-.a.a.a.a.@.@.O.a.a.a.a.a.a.a._ ` ) ( ! L K T a.a.a.a.c v k k h S f p a.a.a.a.a.a.a.2 2 2 a.a.a.a.* * a.a.a.a.a.a.",
"a.a.a.a.a.4.3.>.-.*.a.a.@.@.o.a.a.a.a.a.a.] ' ' ) ^ ! a.a.a.a.a.a.a.a.a.a.k h F B d i a.a.a.a.a.a.2 2 2 a.a.& = $ # + a.a.a.a.a.",
"a.a.a.a.r.p.3.>.-.*.a.a.@.@.O.....| 9.6.{ [ ' ' ) a.a.a.a.a.a.a.a.a.a.a.a.a.a.C B d a u 8 e 9 0 6 2 2 2 a.a.= = $ # + O a.a.a.a.",
"a.a.a.a.t.p.1.a.-.*.%.a.@.@.O.e.q.| 9.7.[ [ ' a.a.a.a.a.E T G H M M n v a.a.a.a.a.s a i y r w 0 5 3 2 2 a.- = = a.# + + a.a.a.a.",
"a.a.a.a.u.p.a.a.-.*.$.a.a.@.O.e...| 9.{ [ [ a.a.a.a.P L Q T U H M M b v k k a.a.a.a.a i y r w 0 5 3 2 a.a.- = = a.a.+ + a.a.a.a.",
"a.a.a.a.t.p.2.-.-.*.%.a.a.a.a.a.a.| 9.{ [ a.a.a./ ( ! L Q T U H M M b v k k h D a.a.a.i y r 0 a.a.a.a.a.a.; = = % $ + + a.a.a.a.",
"a.a.a.a.r.p.3.>.-.$.a.a.a.a.a.a.a.| 9.{ a.a.a._ ) ( ! L Q T U H M M b v k k h A f a.a.t y r w a.a.a.a.a.a.a.= = $ # + @ a.a.a.a.",
"a.a.a.a.a.4.3.>.-.*.a.a.a.a.a.a.a.| 9.{ a.a.' ' ) ( ! L Q T U H M M b v k k h S f p a.a.e r w a.a.a.a.a.a.a.& = $ # @ a.a.a.a.a.",
"a.a.a.a.a.a.1.>.-.a.a.a.a.a.a.a.| | 8.a.a.a.' ' ) ( ! L Q T U H M M b v k k h S B d a.a.a.r w 7 a.a.a.a.a.a.a.% $ $ a.a.a.a.a.a.",
"a.a.a.a.a.a.>.>.-.a.a.a.a.a.a.a...| 8.a.a.[ ' ' ) ( ! L R I H N m m b v l j k D g d i a.a.e w 0 a.a.a.a.a.a.a.% $ $ a.a.a.a.a.a.",
"a.a.a.a.a.a.>.>.-.$.%.&.@.@.O.e.q.| a.a.[ [ ' ' ) ( a.a.a.a.a.a.a.a.a.a.a.a.a.D g d a i a.a.w 0 5 3 2 < , ; = = $ $ a.a.a.a.a.a.",
"a.a.a.a.a.a.>.>.-.*.%.&.@.@.O.e.q.} a.a.[ [ ' ' ) / a.a.a.a.a.a.a.a.a.a.a.a.a.D g d a u a.a.0 0 5 3 2 < , & = = $ $ a.a.a.a.a.a.",
"a.a.a.a.a.a.a.;.-.$.%.&.@.@.O.e.q.a.a.{ [ [ ' ' ) a.a.a.E Y H M m m b v k k h F g d a i a.a.7 0 5 3 2 < , ; = = * a.a.a.a.a.a.a.",
"a.a.a.a.a.a.a.a.a.a.a.a.a.a.X.e.e.a.a.{ [ [ ' ' ) a.a.L Q T U H M M b v k k h S B d a i y a.a.0 5 : a.a.a.a.a.a.a.a.a.a.a.a.a.a.",
"a.a.a.a.a.a.a.a.a.a.a.a.a.a. .e.q.a.a.{ [ [ ' ' ) ( P L Q T U H M M b v k k h S B d a i y a.a.7 5 : a.a.a.a.a.a.a.a.a.a.a.a.a.a.",
"a.a.a.r.i.5.,.a.a.a.a.a.a.a.X.e.w.a.a.{ [ [ ' ' ) a.a.L Q T U H M M b v k k h S B d a i y a.a.7 5 3 a.a.a.a.a.a.a.a.O + O a.a.a.",
"a.a.r.u.u.i.2.=.a.a.a.a.a.a.X.e.e.a.a.{ [ [ ' ' ) a.a.a.E T I G N M n v k k h S B d a i y a.a.7 5 3 a.a.a.a.a.a.% # + + . X a.a.",
"a.a.u.u.t.i.3.;.a.a.a.a.a.a.X.e.w.a.a.{ [ [ ' ' ) ^ a.a.a.a.a.a.a.a.a.a.a.j h S B d a i y a.a.6 5 3 a.a.a.a.a.a.$ # + + .   a.a.",
"a.r.u.y.a.a.1.>.-.*.%.&.@.@.O.e.q.a.{ { [ [ ' ' ) ( a.a.a.a.a.a.a.a.a.a.a.a.h F B d a i y a.a.6 5 3 2 < , & = = $ # a.a..   X a.",
"a.r.u.y.a.a.1.>.-.*.%.&.@.@.O.e.w.a.a.{ [ [ ' ' ) ( ! J R G N M m m b x a.a.a.F B d a i y a.a.6 5 3 2 < , & = = $ $ a.a..   X a.",
"a.a.u.u.r.5.3.>.=.$.#.&.@.@.X.e.e.a.a.7.[ [ ' ' ) ( ! L Q T U H M M b v k a.a.D g d a i y a.a.7 5 3 2 < , ; - - $ # O O .   a.a.",
"a.a.r.u.u.i.3.-.a.a.a.a.a.a.X.e.q.a.a.7.[ [ ' ' ) ( ! L Q T U H M M b v k a.a.D g d a i y a.a.7 5 3 a.a.a.a.a.a.% # + + . o a.a.",
"a.a.a.y.t.i.1.a.a.a.a.a.a.a. .e.e.a.a.{ [ [ ' ' ) ( ! L Q T U H M M b v j a.a.D g d a i t a.a.0 5 3 a.a.a.a.a.a.a.$ + + o a.a.a.",
"a.a.a.a.a.a.a.a.a.a.a.a.a.a.X.e.q.a.a.[ [ [ ' ' ) ( P J E T I G G N b x a.a.a.A B d a i 8 a.a.0 5 : a.a.a.a.a.a.a.a.a.a.a.a.a.a.",
"a.a.a.a.a.a.a.a.a.a.a.a.a.a.a.e.q.a.a.[ [ [ ' ' _ a.a.a.a.a.a.a.a.a.a.a.a.a.h F B d a i a.a.7 0 5 a.a.a.a.a.a.a.a.a.a.a.a.a.a.a.",
"a.a.a.a.a.a.a.-.=.$.#.&.@.@.X.e.q.| a.a.[ [ ' ' _ a.a.a.a.a.a.a.a.a.a.a.a.a.h S B d a u a.a.0 0 5 2 1 < , & = = * a.a.a.a.a.a.a.",
"a.a.a.a.a.a.-.>.-.*.%.&.@.@.O.e.q.| a.a.] [ ' ' ) ~ K W R I H N M m n c k k h S B d a u a.a.0 0 5 3 2 < , & = = $ * a.a.a.a.a.a.",
"a.a.a.a.a.a.-.>.-.*.%.&.@.@.O.e.q.| } a.a.[ ' ' ) ( ! L Q T U H M M b v k k h S B d a a.a.e w 0 5 3 2 < , & = = $ * a.a.a.a.a.a.",
"a.a.a.a.a.a.-.>.-.a.a.a.a.a.a.a...| 8.a.a.] ' ' ) ( ! L Q T U H M M b v k k h S B d a.a.a.r w 0 a.a.a.a.a.a.a.= $ * a.a.a.a.a.a.",
"a.a.a.a.a.a.-.>.-.a.a.a.a.a.a.a.a.| 9.{ a.a.' ' ) ( ! L Q T U H M M b v k k h S g p a.a.y r w 7 a.a.a.a.a.a.a.= $ * a.a.a.a.a.a.",
"a.a.a.a.a.a.1.>.-.$.a.a.a.a.a.a.a.| 9.{ a.a.a._ ) ( ! L Q T U H M M b v k k h A f a.a.a.y r w a.a.a.a.a.a.a.- = $ $ a.a.a.a.a.a.",
"a.a.a.a.a.i.3.>.-.$.#.a.a.a.a.a.a.| 9.{ [ a.a.a.) ( ! L Q T U H M M b v k k h C a.a.a.u y r q a.a.a.a.a.a.- = = $ # + a.a.a.a.a.",
"a.a.a.a.r.p.2.;.-.*.%.a.a.a.X.e.w.| 9.{ [ [ a.a.a.~ P L Q T U H M M b v k k a.a.a.a.a i y r w 0 5 3 a.a.a.- = = * # + O a.a.a.a.",
"a.a.a.a.y.p.2.a.a.*.%.a.a.o.O.e.q.| 9.{ [ [ ' a.a.a.a.P R Y G H M M b c z a.a.a.a.p a i y r w 0 5 3 1 a.a.& = a.a.$ + + a.a.a.a.",
"a.a.a.a.r.p.2.a.=.*.%.a.a.o.X.e...| 0.6.[ [ ' ' / a.a.a.a.a.a.a.a.a.a.a.a.a.a.Z f d a u e q 0 6 5 3 3 a.a.; = - a.$ + O a.a.a.a.",
"a.a.a.a.<.p.2.;.-.*.$.a.a.o.X...a.a.a.a.a.] ' ' ) / a.a.a.a.a.a.a.a.a.a.a.a.h F B d i a.a.a.a.a.4 3 3 a.a.& = = $ # + # a.a.a.a.",
"a.a.a.a.a.5.3.>.-.$.a.a.a.o.O.e.a.a.a.a.a.a.' ` ) ( ! J E T a.a.a.a.n c k k h S V d a.a.a.a.a.a.4 3 2 a.a.a.= = $ # @ a.a.a.a.a.",
"a.a.a.a.a.a.:.-.=.a.a.a.+.@.O.e...a.a.a.a.a.a.a.) ( ! L Q T U N M M b v k k h D a.a.a.a.a.a.a.0 5 3 2 1 a.a.a.= * $ a.a.a.a.a.a.",
"a.a.a.a.a.a.a.a.a.a.a.a.@.@.O.e.q.| a.a.a.a.a.a.a.a.! L Q T U H M M b v k k a.a.a.a.a.a.a.a.0 0 5 3 2 1 a.a.a.a.a.a.a.a.a.a.a.a.",
"a.a.a.a.a.a.a.a.a.a.a.&.@.@.a.e...| a.a.a.a.a.a.a.a.a.a.a.I G H M m b a.a.a.a.a.a.a.a.a.a.a.0 0 6 a.2 < , a.a.a.a.a.a.a.a.a.a.a.",
"a.a.a.a.a.a.a.a.a.a.a.&.@.@.a.a...| a.a.a.a.a.a.a.a.a.a.a.a.a.a.a.a.a.a.a.a.a.a.a.a.a.a.a.a.0 0 a.a.2 < , a.a.a.a.a.a.a.a.a.a.a.",
"a.a.a.a.a.a.a.a.a.a.a.&.@.@.X.w...| a.a.a.a.a.a.a.a.a.a.a.a.a.a.a.a.a.a.a.a.a.a.a.a.a.a.a.a.0 0 6 2 2 < , a.a.a.a.a.a.a.a.a.a.a.",
"a.a.a.a.a.a.a.a.a.a.a.a.@.@.O.e.q.} a.a.a.a.a.a.a.a.a.a.a.a.a.a.a.a.a.a.a.a.a.a.a.a.a.a.a.a.0 0 5 3 2 1 a.a.a.a.a.a.a.a.a.a.a.a.",
"a.a.a.a.a.a.a.a.a.a.a.a.+.@.O.e...a.a.a.a.a.a.a.a.a.a.a.a.a.a.a.a.a.a.a.a.a.a.a.a.a.a.a.a.a.a.0 5 3 2 2 a.a.a.a.a.a.a.a.a.a.a.a.",
"a.a.a.a.a.a.a.a.a.a.a.a.a.a.X.a.a.a.a.a.a.a.a.a.a.a.a.a.a.a.a.a.a.a.a.a.a.a.a.a.a.a.a.a.a.a.a.a.a.: a.a.a.a.a.a.a.a.a.a.a.a.a.a.",
"a.a.a.a.a.a.a.a.a.a.a.a.a.a.a.a.a.a.a.a.a.a.a.a.a.a.a.a.a.a.a.a.a.a.a.a.a.a.a.a.a.a.a.a.a.a.a.a.a.a.a.a.a.a.a.a.a.a.a.a.a.a.a.a.",
"a.a.a.a.a.a.a.a.a.a.a.a.a.a.a.a.a.a.a.a.a.a.a.a.a.a.a.a.a.a.a.a.a.a.a.a.a.a.a.a.a.a.a.a.a.a.a.a.a.a.a.a.a.a.a.a.a.a.a.a.a.a.a.a.",
"a.a.a.a.a.a.a.a.a.a.a.a.a.a.a.a.a.a.a.a.a.a.a.a.a.a.a.a.a.a.a.a.a.a.a.a.a.a.a.a.a.a.a.a.a.a.a.a.a.a.a.a.a.a.a.a.a.a.a.a.a.a.a.a.",
"a.a.a.a.a.a.a.a.a.a.a.a.a.a.a.a.a.a.a.a.a.a.a.a.a.a.a.a.a.a.a.a.a.a.a.a.a.a.a.a.a.a.a.a.a.a.a.a.a.a.a.a.a.a.a.a.a.a.a.a.a.a.a.a.",
"a.a.a.a.a.a.a.a.a.a.a.a.a.a.a.a.a.a.a.a.a.a.a.a.a.a.a.a.a.a.a.a.a.a.a.a.a.a.a.a.a.a.a.a.a.a.a.a.a.a.a.a.a.a.a.a.a.a.a.a.a.a.a.a."
};
