/* XPM */
static char *sithchain32[] = {
/* columns rows colors chars-per-pixel */
"32 32 62 1 ",
"  c #5F306E2CB518",
". c #5F206FB2B5DA",
"X c #5EF37019B611",
"o c #5E65716EB6C8",
"O c #5DD7733FB814",
"+ c #5E367283B7AC",
"@ c #5BBF77DFBAFC",
"# c #5CC774EBB8A8",
"$ c #5D1C746DB87D",
"% c #5C937530B8CA",
"& c #5C4A75CAB963",
"* c #5C547622BA17",
"= c #5C3B7683BA93",
"- c #5BAB7837BB1F",
"; c #5B8F7889BB51",
": c #5B6679CABC27",
"> c #5B2E7A59BCC4",
", c #5AD57AA3BD59",
"< c #59C17BFABE7E",
"1 c #5A1E7BBABE86",
"2 c #59A57C39BE8C",
"3 c #595E7DCABF56",
"4 c #594B7E20BF92",
"5 c #58CC7F9FC0DF",
"6 c #58EA7F78C0D2",
"7 c #57518398C406",
"8 c #572D83D6C446",
"9 c #56B7851CC5A3",
"0 c #555B8766C6B7",
"q c #58A98103C22B",
"w c #584C81B6C2C5",
"e c #55418866C7D3",
"r c #53508B9ECBB6",
"t c #54538A73C9C1",
"y c #52BE8DD1CC62",
"u c #528E8E68CCC2",
"i c #523B8FD6CD69",
"p c #522F9078CDE6",
"a c #518A91EDCF24",
"s c #515E927ECFB2",
"d c #4F9E95CED20C",
"f c #4FB696BAD295",
"g c #4F7D9775D2EC",
"h c #4ED6984FD328",
"j c #4E8798FCD375",
"k c #4E5A9991D3DD",
"l c #4D819AE0D51A",
"z c #4CBD9B39D56F",
"x c #4E049A88D4C2",
"c c #4C619C88D63E",
"v c #4C5B9CF1D682",
"b c #4C769D27D694",
"n c #4C8F9E88D800",
"m c #4CC69EC4D86F",
"M c #4C51A003D9B3",
"N c #50AD93E9D0D7",
"B c #511A933CD055",
"V c #5044945ED111",
"C c #4FD49666D283",
"Z c #4B68A13ADA78",
"A c #4C11A07ADA06",
"S c None",
/* pixels */
"SSSSSSSSSSSSSSSSSSSSSSSSSSSSSSSS",
"SSSSSSSSSSSSSSSSSSSSSSSSSSSSSSSS",
"SSSSSSSSSSSSSSSSSSSSSSSSSSSSSSSS",
"SSSSSSkSSSSSSSSSSSSSSSSSS*SSSSSS",
"SSSSSxkgSSSSSSSSSSSSSSSS-*%SSSSS",
"SSSSSxkfCSSSSSSSSSSSSSS>;&#SSSSS",
"SSSSSxkgSSSSurte097wSSSS@*%SSSSS",
"SSSnbSkhSSSpurSSSS7w6SSS==S+oSSS",
"SSAnvSkgdNspSSSe0SSS641>@=S+o.SS",
"SSAncSSgdNsSyrte097SS31>@SS+o.SS",
"SSMnbSSSdNSiurte097w6S1,SSS+oXSS",
"SSSnSSSSdSSpurte097w5SS>SSSSoSSS",
"SSSnvlkgdSspuSSSSSSw54S>-*$+oSSS",
"SSSSSSSgfSspuSte097w54S>;SSSSSSS",
"SSSSSSSfSsspurte097w542S;SSSSSSS",
"SZAnSSSgSsspuSSSSS7w54<S-SSSo. S",
"SZSnvlkgSsspurSSSSSq54<S-*$+oS S",
"SZAnSSSgSBspurte09SS542S-SSSo. S",
"SSASSSSfCSspurte09Sq54S:;SSSSXSS",
"SSSSSSSgdSspuSSSSSSw54S>;SSSSSSS",
"SSSnvlkgdSapurte097w54S>-*$+oSSS",
"SSSnbSSSdVSpurte097w6S1,SSS+oSSS",
"SSSnvSSSdNSSurte097wSS1,SSS+oSSS",
"SSAmczSgdNsSSrte098SS41>-SO+o.SS",
"SSAncSSgSSspuSSSSSSw63SS@SS+o.SS",
"SSSnvSjgSSSiurte097w5SSS@=S+oSSS",
"SSSSSSkgdSSSSrte097SSSS>-*SSSSSS",
"SSSSSSkfdSSSSSSSSSSSSSS>;*SSSSSS",
"SSSSSSkgdSSSSSSSSSSSSSS>-=SSSSSS",
"SSSSSSSSSSSSSSSSSSSSSSSSSSSSSSSS",
"SSSSSSSSSSSSSSSSSSSSSSSSSSSSSSSS",
"SSSSSSSSSSSSSSSSSSSSSSSSSSSSSSSS"
};
