/* XPM */
static char *sithchain16[] = {
/* columns rows colors chars-per-pixel */
"16 16 44 1 ",
"  c #5F166E73B53B",
". c #5EC57058B634",
"X c #5EBD7096B65D",
"o c #5E94710DB69D",
"O c #5DAE734DB802",
"+ c #5E0672C6B7D5",
"@ c #5BD277B4BAD4",
"# c #5BFA774DBAB3",
"$ c #5AC97AC0BD02",
"% c #5AC97AC2BD68",
"& c #5A757B1CBD93",
"* c #59367E3CBFDE",
"= c #590C7EE0C055",
"- c #58FB7F1EC07D",
"; c #57BD82B0C374",
": c #56098640C621",
"> c #55DD8679C65A",
", c #580E81FDC2F3",
"< c #57F5823BC31E",
"1 c #57E3827AC34E",
"2 c #54B0895FC8D0",
"3 c #54D68917C889",
"4 c #53188CB3CBF3",
"5 c #52F18D46CC39",
"6 c #52D48DADCC50",
"7 c #51EE90CDCE3D",
"8 c #519891A6CEF5",
"9 c #51E090E3CE50",
"0 c #51D9913ACE9E",
"q c #4F4197C2D30D",
"w c #4EEF9848D34A",
"e c #4ECC98AAD370",
"r c #4EFF9861D362",
"t c #4CEE9C0CD5E3",
"y c #4C959C6CD62E",
"u c #4CD89C42D603",
"i c #4C6F9EDBD852",
"p c #4C7B9EEDD889",
"a c #4C4D9F6FD8F8",
"s c #50A69487D12A",
"d c #502B94E8D16E",
"f c #4FFA9545D1A6",
"g c #4B8BA0F3DA40",
"h c None",
/* pixels */
"hhhhhhhhhhhhhhhh",
"hhhhhhhhhhhhhhhh",
"hhhrhhhhhhhh#hhh",
"hhhehh52:;hh#hhh",
"haywd842:;*&#+Xh",
"hihhd952:;=%hhoh",
"hhtwf063:<-$#Ohh",
"hahqs052:1=&@h.h",
"gatrs052><=&#OX ",
"hhhqd052>,-$@hhh",
"hhuwf752:1-%#Ohh",
"hpyhd842:;*&h+oh",
"hpyqh752:;-h@+oh",
"hhhwhhhhhhhh#hhh",
"hhhhhhhhhhhhhhhh",
"hhhhhhhhhhhhhhhh"
};
